<?xml version="1.0" encoding="UTF-8" standalone="no"?>
<!-- Created with Inkscape (http://www.inkscape.org/) -->

<svg
   xmlns:dc="http://purl.org/dc/elements/1.1/"
   xmlns:cc="http://creativecommons.org/ns#"
   xmlns:rdf="http://www.w3.org/1999/02/22-rdf-syntax-ns#"
   xmlns:svg="http://www.w3.org/2000/svg"
   xmlns="http://www.w3.org/2000/svg"
   xmlns:sodipodi="http://sodipodi.sourceforge.net/DTD/sodipodi-0.dtd"
   xmlns:inkscape="http://www.inkscape.org/namespaces/inkscape"
   width="30mm"
   height="30mm"
   viewBox="0 0 106.29922 106.29921"
   id="svg2"
   version="1.1"
   inkscape:version="0.91 r"
   sodipodi:docname="generic.svg"
   inkscape:export-filename="/media/ricardo/Dados/Codidos/Java/Projetos/OpenDevice/opendevice-web-view/src/main/webapp/images/boards/generic-blue.png"
   inkscape:export-xdpi="76.199997"
   inkscape:export-ydpi="76.199997">
  <defs
     id="defs4" />
  <sodipodi:namedview
     id="base"
     pagecolor="#595959"
     bordercolor="#666666"
     borderopacity="1.0"
     inkscape:pageopacity="0"
     inkscape:pageshadow="2"
     inkscape:zoom="3.2539062"
     inkscape:cx="70.762252"
     inkscape:cy="34.162773"
     inkscape:document-units="px"
     inkscape:current-layer="g3347"
     showgrid="false"
     fit-margin-top="0"
     fit-margin-left="0"
     fit-margin-right="0"
     fit-margin-bottom="0"
     inkscape:window-width="1317"
     inkscape:window-height="744"
     inkscape:window-x="49"
     inkscape:window-y="24"
     inkscape:window-maximized="1"
     inkscape:snap-bbox="true"
     inkscape:snap-page="true"
     inkscape:bbox-paths="true"
     inkscape:bbox-nodes="true"
     inkscape:snap-bbox-edge-midpoints="true"
     inkscape:snap-bbox-midpoints="true" />
  <metadata
     id="metadata7">
    <rdf:RDF>
      <cc:Work
         rdf:about="">
        <dc:format>image/svg+xml</dc:format>
        <dc:type
           rdf:resource="http://purl.org/dc/dcmitype/StillImage" />
        <dc:title />
      </cc:Work>
    </rdf:RDF>
  </metadata>
  <g
     inkscape:label="Layer 1"
     inkscape:groupmode="layer"
     id="layer1"
     transform="translate(-332.09323,-573.09789)">
    <g
       id="g3347"
       transform="translate(5.5137197,150.98576)">
      <rect
         style="color:#000000;clip-rule:nonzero;display:inline;overflow:visible;visibility:visible;opacity:1;isolation:auto;mix-blend-mode:normal;color-interpolation:sRGB;color-interpolation-filters:linearRGB;solid-color:#000000;solid-opacity:1;fill:#ffffff;fill-opacity:1;fill-rule:nonzero;stroke:none;stroke-width:2;stroke-linecap:butt;stroke-linejoin:miter;stroke-miterlimit:4;stroke-dasharray:none;stroke-dashoffset:0;stroke-opacity:1;marker:none;color-rendering:auto;image-rendering:auto;shape-rendering:auto;text-rendering:auto;enable-background:accumulate"
         id="rect4175"
         width="106.29923"
         height="106.29922"
         x="326.5795"
         y="422.11212"
         ry="0" />
      <path
         style="color:#000000;clip-rule:nonzero;display:inline;overflow:visible;visibility:visible;opacity:1;isolation:auto;mix-blend-mode:normal;color-interpolation:sRGB;color-interpolation-filters:linearRGB;solid-color:#000000;solid-opacity:1;fill:#1ba8ff;fill-opacity:1;fill-rule:nonzero;stroke:none;stroke-width:2;stroke-linecap:butt;stroke-linejoin:miter;stroke-miterlimit:4;stroke-dasharray:none;stroke-dashoffset:0;stroke-opacity:1;marker:none;color-rendering:auto;image-rendering:auto;shape-rendering:auto;text-rendering:auto;enable-background:accumulate"
         d="M 53.150391 0 A 53.149602 53.149595 0 0 0 0 53.150391 A 53.149602 53.149595 0 0 0 53.150391 106.29883 A 53.149602 53.149595 0 0 0 106.29883 53.150391 A 53.149602 53.149595 0 0 0 53.150391 0 z M 60.839844 26.050781 C 62.059288 26.058197 61.976122 26.316771 62.037109 29.958984 L 62.085938 32.9375 L 63.935547 32.9375 L 65.785156 32.9375 L 65.833984 29.958984 C 65.903934 25.781695 65.793341 26.024756 67.587891 26.097656 L 69.072266 26.158203 L 69.175781 29.341797 C 69.232281 31.093447 69.351959 32.641933 69.443359 32.783203 C 69.554669 32.955133 70.181114 33.041016 71.339844 33.041016 C 73.336094 33.041016 73.244184 32.932757 73.333984 35.404297 L 73.386719 36.841797 L 76.666016 36.898438 C 78.973565 36.938407 79.991106 37.030091 80.103516 37.207031 C 80.374596 37.633701 80.294497 39.750064 79.998047 39.996094 C 79.834577 40.131764 78.467621 40.243044 76.556641 40.277344 L 73.386719 40.333984 L 73.326172 42.166016 C 73.282812 43.492936 73.341013 44.044076 73.533203 44.166016 C 73.679143 44.258586 75.198856 44.335891 76.910156 44.337891 C 79.555936 44.340571 80.038471 44.389646 80.144531 44.666016 C 80.378201 45.274946 80.276867 47.161178 79.998047 47.392578 C 79.834577 47.528238 78.467621 47.641481 76.556641 47.675781 L 73.386719 47.732422 L 73.328125 49.632812 L 73.269531 51.533203 L 74.765625 51.576172 C 75.589185 51.599672 76.970484 51.590741 77.833984 51.556641 C 80.038734 51.469581 80.269531 51.631939 80.269531 53.261719 C 80.269531 54.060719 80.168876 54.647247 80.009766 54.779297 C 79.855806 54.907017 78.541421 54.997 76.775391 55 C 75.138231 55.0028 73.678703 55.009625 73.533203 55.015625 C 73.332723 55.023435 73.283425 55.486161 73.328125 56.925781 L 73.386719 58.828125 L 76.556641 58.884766 C 78.529671 58.920186 79.833653 59.029288 80.007812 59.173828 C 80.204752 59.337258 80.268762 59.806596 80.226562 60.759766 L 80.167969 62.115234 L 77.1875 62.164062 C 72.93852 62.235202 73.257425 62.058138 73.328125 64.330078 L 73.386719 66.224609 L 76.666016 66.28125 C 78.973565 66.32123 79.991106 66.412904 80.103516 66.589844 C 80.374596 67.016514 80.294497 69.132876 79.998047 69.378906 C 79.834577 69.514576 78.467621 69.625856 76.556641 69.660156 L 73.386719 69.716797 L 73.333984 71.15625 C 73.244184 73.6278 73.335974 73.517578 71.339844 73.517578 C 70.181114 73.517578 69.554669 73.603411 69.443359 73.775391 C 69.351939 73.916651 69.230328 75.465157 69.173828 77.216797 L 69.072266 80.402344 L 67.652344 80.462891 C 66.655344 80.506081 66.18141 80.445272 66.0625 80.257812 C 65.96931 80.110973 65.892625 78.582568 65.890625 76.861328 C 65.886975 73.235098 66.041021 73.449874 63.519531 73.558594 L 62.085938 73.621094 L 61.982422 77.011719 L 61.880859 80.402344 L 60.289062 80.460938 L 58.695312 80.521484 L 58.695312 77.25 C 58.695312 74.69352 58.633523 73.927234 58.408203 73.740234 C 58.225363 73.588474 57.491997 73.522547 56.404297 73.560547 L 54.689453 73.621094 L 54.585938 77.011719 L 54.484375 80.402344 L 52.943359 80.402344 L 51.402344 80.402344 L 51.34375 77.230469 C 51.30944 75.319489 51.19817 73.952532 51.0625 73.789062 C 50.75151 73.414353 47.736771 73.414353 47.425781 73.789062 C 47.290121 73.952532 47.178831 75.319489 47.144531 77.230469 L 47.085938 80.402344 L 45.544922 80.402344 L 44.003906 80.402344 L 43.947266 77.123047 C 43.907296 74.815507 43.815612 73.796004 43.638672 73.683594 C 43.236932 73.428404 40.246491 73.485853 40.082031 73.751953 C 40.002361 73.880803 39.948538 75.198158 39.960938 76.679688 C 39.973347 78.161227 39.932494 79.628683 39.871094 79.939453 C 39.761484 80.494193 39.733102 80.503906 38.257812 80.503906 C 37.240773 80.503906 36.721397 80.420874 36.654297 80.246094 C 36.599817 80.104044 36.549016 78.610704 36.541016 76.927734 C 36.532676 75.244774 36.450475 73.794225 36.359375 73.703125 C 36.268245 73.611995 35.409169 73.509862 34.449219 73.476562 L 32.703125 73.416016 L 32.601562 71.566406 L 32.498047 69.716797 L 29.107422 69.615234 L 25.716797 69.511719 L 25.716797 67.970703 L 25.716797 66.429688 L 29.107422 66.326172 L 32.498047 66.224609 L 32.556641 64.330078 C 32.627391 62.058128 32.946245 62.235162 28.697266 62.164062 L 25.716797 62.115234 L 25.658203 60.759766 C 25.615963 59.806606 25.680033 59.337258 25.876953 59.173828 C 26.051113 59.029288 27.355095 58.920166 29.328125 58.884766 L 32.498047 58.828125 L 32.556641 56.925781 L 32.617188 55.025391 L 30.605469 54.994141 C 29.499389 54.976841 28.060713 54.986725 27.408203 55.015625 C 25.821693 55.085925 25.615234 54.884089 25.615234 53.261719 C 25.615234 52.227489 25.689239 51.921011 25.974609 51.775391 C 26.172379 51.674461 27.618523 51.601081 29.189453 51.613281 C 30.841963 51.626101 32.166401 51.546911 32.332031 51.425781 C 32.546781 51.268741 32.603894 50.781859 32.558594 49.474609 L 32.498047 47.732422 L 29.519531 47.681641 C 25.342241 47.611691 25.585303 47.722284 25.658203 45.927734 L 25.716797 44.443359 L 28.697266 44.394531 C 32.946245 44.323381 32.627441 44.502419 32.556641 42.230469 L 32.498047 40.333984 L 29.107422 40.232422 L 25.716797 40.128906 L 25.658203 38.775391 C 25.615973 37.822231 25.680033 37.35093 25.876953 37.1875 C 26.051113 37.04296 27.355095 36.933837 29.328125 36.898438 L 32.498047 36.841797 L 32.550781 35.404297 C 32.640571 32.932757 32.548802 33.041016 34.544922 33.041016 C 35.496672 33.041016 36.333297 32.946891 36.404297 32.832031 C 36.475317 32.717171 36.528437 31.285031 36.523438 29.650391 C 36.518348 28.015751 36.568866 26.538847 36.634766 26.367188 C 36.726756 26.127498 37.103219 26.054688 38.255859 26.054688 L 39.755859 26.054688 L 39.871094 27.75 C 39.934294 28.68233 39.966712 30.138768 39.945312 30.986328 C 39.923963 31.833898 39.980359 32.641933 40.068359 32.783203 C 40.247449 33.070493 43.210752 33.14688 43.638672 32.875 C 43.815612 32.76259 43.907266 31.743087 43.947266 29.435547 L 44.003906 26.158203 L 45.544922 26.158203 L 47.085938 26.158203 L 47.144531 29.328125 C 47.178831 31.239105 47.290121 32.606061 47.425781 32.769531 C 47.736771 33.144251 50.75151 33.144251 51.0625 32.769531 C 51.19817 32.606061 51.30945 31.239105 51.34375 29.328125 L 51.402344 26.158203 L 52.943359 26.158203 L 54.484375 26.158203 L 54.585938 29.546875 L 54.689453 32.9375 L 56.404297 32.998047 C 57.491997 33.036097 58.225363 32.970109 58.408203 32.818359 C 58.633493 32.631419 58.695312 31.865466 58.695312 29.316406 L 58.695312 26.054688 L 60.232422 26.054688 C 60.464043 26.054688 60.665637 26.049722 60.839844 26.050781 z M 47.509766 40.4375 L 43.958984 43.988281 L 40.408203 47.539062 L 40.408203 56.480469 C 40.408203 63.161198 40.47203 65.485702 40.65625 65.669922 C 40.84247 65.856182 43.880856 65.916016 53.072266 65.916016 C 63.861715 65.916016 65.278193 65.88001 65.564453 65.59375 C 65.850733 65.30749 65.886719 63.889059 65.886719 53.099609 C 65.886719 43.9082 65.826845 40.869814 65.640625 40.683594 C 65.456405 40.499424 63.133855 40.4375 56.453125 40.4375 L 47.509766 40.4375 z "
         transform="translate(326.57951,422.11213)"
         id="path4145" />
    </g>
  </g>
</svg>
